<svg xmlns="http://www.w3.org/2000/svg" xmlns:xlink="http://www.w3.org/1999/xlink" width="192" zoomAndPan="magnify" viewBox="0 0 144 143.999998" height="192" preserveAspectRatio="xMidYMid meet" version="1.2"><defs><clipPath id="190de51cce"><path d="M 8.390625 5.027344 L 115 5.027344 L 115 139 L 8.390625 139 Z M 8.390625 5.027344 "/></clipPath><clipPath id="6f6f092531"><path d="M 48 5.027344 L 135.890625 5.027344 L 135.890625 106 L 48 106 Z M 48 5.027344 "/></clipPath></defs><g id="af05c4bcfb"><path style=" stroke:none;fill-rule:evenodd;fill:#727376;fill-opacity:1;" d="M 65.78125 45.734375 L 92.152344 45.734375 C 93.308594 45.734375 94.257812 46.683594 94.257812 47.839844 C 94.257812 48.996094 93.308594 49.945312 92.152344 49.945312 L 65.78125 49.945312 C 64.625 49.945312 63.679688 49 63.679688 47.839844 C 63.679688 46.683594 64.625 45.734375 65.78125 45.734375 Z M 53.160156 82.484375 L 92.152344 82.484375 C 93.308594 82.484375 94.257812 83.433594 94.257812 84.585938 L 94.257812 84.589844 C 94.257812 85.742188 93.308594 86.691406 92.152344 86.691406 L 53.160156 86.691406 C 52.003906 86.691406 51.054688 85.746094 51.054688 84.589844 L 51.054688 84.585938 C 51.054688 83.429688 52 82.484375 53.160156 82.484375 Z M 53.160156 70.703125 L 92.152344 70.703125 C 93.308594 70.703125 94.257812 71.648438 94.257812 72.804688 L 94.257812 72.808594 C 94.257812 73.964844 93.308594 74.910156 92.152344 74.910156 L 53.160156 74.910156 C 52.003906 74.910156 51.054688 73.964844 51.054688 72.808594 L 51.054688 72.804688 C 51.054688 71.648438 52 70.703125 53.160156 70.703125 Z M 53.160156 58.921875 L 92.152344 58.921875 C 93.308594 58.921875 94.257812 59.867188 94.257812 61.023438 C 94.257812 62.179688 93.308594 63.128906 92.152344 63.128906 L 53.160156 63.128906 C 52.003906 63.128906 51.054688 62.183594 51.054688 61.023438 C 51.054688 59.867188 52 58.921875 53.160156 58.921875 Z M 53.160156 58.921875 "/><g clip-rule="nonzero" clip-path="url(#190de51cce)"><path style=" stroke:none;fill-rule:evenodd;fill:#ff78ac;fill-opacity:1;" d="M 8.472656 5.109375 L 39.308594 5.109375 C 39.347656 5.109375 39.382812 5.140625 39.382812 5.183594 L 39.382812 24.269531 C 39.382812 24.3125 39.417969 24.347656 39.460938 24.347656 L 114.917969 24.347656 C 114.960938 24.347656 114.992188 24.382812 114.992188 24.421875 L 114.992188 114.398438 C 114.992188 114.441406 114.960938 114.476562 114.917969 114.476562 L 89.960938 114.476562 C 89.917969 114.476562 89.882812 114.511719 89.882812 114.550781 L 89.882812 138.898438 C 89.882812 138.9375 89.851562 138.972656 89.808594 138.972656 L 78.265625 138.972656 C 78.222656 138.972656 78.191406 138.9375 78.191406 138.898438 L 78.191406 102.855469 C 78.191406 102.816406 78.222656 102.78125 78.265625 102.78125 L 103.226562 102.78125 C 103.269531 102.78125 103.304688 102.746094 103.304688 102.707031 L 103.304688 36.117188 C 103.304688 36.078125 103.269531 36.042969 103.226562 36.042969 L 39.460938 36.042969 C 39.417969 36.042969 39.382812 36.078125 39.382812 36.117188 C 39.382812 66.519531 39.351562 96.847656 39.351562 127.203125 C 39.351562 127.242188 39.386719 127.277344 39.429688 127.277344 L 57.085938 127.277344 L 57.085938 102.855469 L 68.703125 102.855469 L 68.703125 138.972656 L 27.605469 138.972656 C 27.585938 138.972656 27.566406 138.964844 27.550781 138.949219 C 27.535156 138.933594 27.527344 138.917969 27.527344 138.894531 C 27.597656 104.8125 27.6875 70.480469 27.6875 36.117188 C 27.6875 36.074219 27.65625 36.042969 27.613281 36.042969 L 8.472656 36.042969 C 8.429688 36.042969 8.398438 36.007812 8.398438 35.964844 L 8.398438 5.183594 C 8.398438 5.140625 8.429688 5.109375 8.472656 5.109375 Z M 20.167969 16.800781 L 27.613281 16.800781 C 27.65625 16.800781 27.6875 16.835938 27.6875 16.878906 L 27.6875 24.269531 C 27.6875 24.3125 27.65625 24.347656 27.613281 24.347656 L 20.167969 24.347656 C 20.125 24.347656 20.089844 24.3125 20.089844 24.269531 L 20.089844 16.878906 C 20.089844 16.835938 20.125 16.800781 20.167969 16.800781 Z M 20.167969 16.800781 "/></g><g clip-rule="nonzero" clip-path="url(#6f6f092531)"><path style=" stroke:none;fill-rule:evenodd;fill:#ff78ac;fill-opacity:1;" d="M 48.355469 5.027344 C 48.355469 5.070312 48.390625 5.105469 48.433594 5.105469 L 135.523438 5.105469 C 135.566406 5.105469 135.601562 5.140625 135.601562 5.179688 L 135.601562 105.402344 C 135.601562 105.445312 135.566406 105.480469 135.523438 105.480469 L 123.835938 105.480469 C 123.835938 79.398438 123.910156 43.003906 123.910156 16.875 C 123.910156 16.738281 53.792969 16.800781 48.433594 16.800781 C 48.390625 16.800781 48.355469 16.835938 48.355469 16.875 Z M 48.355469 5.027344 "/></g></g></svg>